Coordinates
version=1
nRows=20
nColumns=38
inDegrees=no

Units are S.I. units (second, meters, Newtons, ...)
If the header above contains a line with 'inDegrees', this indicates whether rotational values are in degrees (yes) or radians (no).

endheader
time	pelvis_tilt	pelvis_list	pelvis_rotation	pelvis_tx	pelvis_ty	pelvis_tz	hip_flexion_r	hip_adduction_r	hip_rotation_r	knee_angle_r	ankle_angle_r	subtalar_angle_r	mtp_angle_r	hip_flexion_l	hip_adduction_l	hip_rotation_l	knee_angle_l	ankle_angle_l	subtalar_angle_l	mtp_angle_l	lumbar_extension	lumbar_bending	lumbar_rotation	arm_flex_r	arm_add_r	arm_rot_r	elbow_flex_r	pro_sup_r	wrist_flex_r	wrist_dev_r	arm_flex_l	arm_add_l	arm_rot_l	elbow_flex_l	pro_sup_l	wrist_flex_l	wrist_dev_l
0	0.0775499	1.43272	-1.64433	0.600959	1.60645	0.961455	-0.248798	0.0147444	-0.144351	0.148202	0.153464	0	0	0.35292	-0.124013	-0.363188	0.545461	0.131529	0	0	-0.286316	0.0170915	0.0526738	0.0884641	-0.204606	0.0566127	0.476258	1.21112	0	0	-0.210448	-0.200091	0.296959	0.665879	0.865508	0	0
0.01	0.114778	1.43705	-1.68166	0.601776	1.59756	0.960048	-0.250999	0.00827821	-0.145678	0.154554	0.163758	0	0	0.354024	-0.112987	-0.37015	0.494071	0.133184	0	0	-0.282852	0.0113001	0.0537401	0.0960317	-0.206346	0.059877	0.477097	1.20422	0	0	-0.213603	-0.19773	0.298646	0.659837	0.86395	0	0
0.02	0.174824	1.43873	-1.74639	0.60241	1.58784	0.958818	-0.255808	-0.00289423	-0.145194	0.161399	0.175173	0	0	0.347293	-0.0982075	-0.380747	0.437295	0.134775	0	0	-0.28064	0.00113402	0.0583223	0.101537	-0.207587	0.0625088	0.478808	1.19845	0	0	-0.218185	-0.195246	0.299429	0.653507	0.862076	0	0
0.03	0.23909	1.43875	-1.81414	0.603138	1.57795	0.957581	-0.262062	-0.0145196	-0.146339	0.168183	0.186431	0	0	0.338054	-0.0804938	-0.382737	0.378867	0.135443	0	0	-0.27958	-0.00974715	0.0613273	0.106658	-0.208198	0.0649425	0.481301	1.19312	0	0	-0.223149	-0.193679	0.300317	0.648669	0.859475	0	0
0.04	0.305157	1.43786	-1.88314	0.603961	1.56792	0.956277	-0.267972	-0.0267507	-0.149237	0.176703	0.198299	0	0	0.326996	-0.0607342	-0.374104	0.318817	0.134411	0	0	-0.27844	-0.0211689	0.0636856	0.111402	-0.208212	0.0661803	0.483516	1.19069	0	0	-0.228387	-0.192615	0.300584	0.644562	0.856532	0	0
0.05	0.370627	1.43542	-1.95267	0.604781	1.55767	0.955	-0.274839	-0.0398654	-0.151044	0.185406	0.209749	0	0	0.312646	-0.0404338	-0.357057	0.257485	0.13098	0	0	-0.277649	-0.0334163	0.0667226	0.115988	-0.207883	0.0664244	0.484729	1.19094	0	0	-0.233997	-0.191698	0.299947	0.64088	0.851836	0	0
0.06	0.427805	1.43199	-2.01556	0.605468	1.54719	0.95372	-0.28238	-0.0529181	-0.151015	0.194282	0.220478	0	0	0.296125	-0.0220522	-0.334893	0.198374	0.125905	0	0	-0.277224	-0.0454844	0.0714602	0.119886	-0.207333	0.0654832	0.486148	1.19163	0	0	-0.239665	-0.190966	0.299698	0.637341	0.847006	0	0
0.07	0.471678	1.42856	-2.06653	0.606125	1.5365	0.952365	-0.289502	-0.0650591	-0.149993	0.204492	0.230747	0	0	0.280044	-0.00744201	-0.312816	0.147351	0.122018	0	0	-0.276452	-0.0560087	0.0779106	0.122472	-0.207643	0.0666222	0.488819	1.19419	0	0	-0.244813	-0.189669	0.301087	0.632097	0.845757	0	0
0.08	0.502422	1.42538	-2.10531	0.606737	1.52561	0.950979	-0.296612	-0.0758461	-0.14811	0.215288	0.239996	0	0	0.263633	0.00351442	-0.287248	0.100757	0.115627	0	0	-0.275047	-0.0649754	0.0850628	0.12449	-0.208375	0.0698489	0.49196	1.19454	0	0	-0.250097	-0.187832	0.302138	0.626056	0.845915	0	0
0.09	0.522197	1.42333	-2.13335	0.607333	1.51461	0.949529	-0.302105	-0.0851053	-0.147183	0.228462	0.248793	0	0	0.250869	0.00987807	-0.263227	0.0657932	0.11016	0	0	-0.2727	-0.0720907	0.0927243	0.125747	-0.209187	0.0734177	0.495439	1.19363	0	0	-0.255821	-0.186424	0.303038	0.62085	0.843698	0	0
0.1	0.533427	1.42263	-2.15183	0.608012	1.50356	0.948067	-0.306799	-0.0924098	-0.146497	0.242154	0.256091	0	0	0.245941	0.0115036	-0.248066	0.0514357	0.111058	0	0	-0.269692	-0.0770664	0.0998939	0.126276	-0.210183	0.076998	0.498749	1.19574	0	0	-0.261333	-0.185093	0.303974	0.615785	0.841302	0	0
0.11	0.538526	1.42276	-2.16266	0.608854	1.49241	0.946669	-0.311741	-0.0980206	-0.145716	0.255095	0.261037	0	0	0.248464	0.00975273	-0.242612	0.0574507	0.11744	0	0	-0.266273	-0.0804065	0.105645	0.126314	-0.210925	0.0804212	0.501475	1.19816	0	0	-0.266984	-0.183646	0.304103	0.611073	0.84059	0	0
0.12	0.544377	1.42288	-2.17386	0.609807	1.48106	0.945375	-0.316031	-0.104148	-0.145715	0.269593	0.265197	0	0	0.254904	0.00684318	-0.243839	0.0765976	0.123875	0	0	-0.262436	-0.0836013	0.111146	0.124839	-0.21185	0.0830046	0.505756	1.2013	0	0	-0.272674	-0.182158	0.303176	0.606024	0.838448	0	0
0.13	0.549898	1.42325	-2.1841	0.610873	1.46948	0.944164	-0.319925	-0.110315	-0.145534	0.28498	0.267979	0	0	0.264542	0.00295603	-0.250518	0.106251	0.128473	0	0	-0.257867	-0.0865145	0.1162	0.121938	-0.212504	0.0840653	0.510994	1.20451	0	0	-0.279025	-0.181086	0.302097	0.602574	0.83599	0	0
0.14	0.558347	1.42392	-2.19679	0.612071	1.45763	0.943029	-0.322766	-0.11692	-0.144838	0.301798	0.269255	0	0	0.276117	-0.00120203	-0.261317	0.142989	0.129677	0	0	-0.252083	-0.0895251	0.12087	0.117478	-0.212932	0.0838487	0.516584	1.20793	0	0	-0.285741	-0.180392	0.301971	0.599729	0.833931	0	0
0.15	0.568333	1.42524	-2.21054	0.613395	1.44553	0.941926	-0.323911	-0.12339	-0.143467	0.320777	0.268999	0	0	0.288579	-0.00586165	-0.273865	0.184218	0.127689	0	0	-0.244793	-0.0922055	0.125146	0.111606	-0.213151	0.0829887	0.522421	1.21146	0	0	-0.292756	-0.179932	0.301871	0.596667	0.830671	0	0
0.16	0.577546	1.42781	-2.22335	0.614864	1.43311	0.940766	-0.322846	-0.12919	-0.141116	0.34226	0.267307	0	0	0.300645	-0.0111571	-0.285875	0.226041	0.125735	0	0	-0.235262	-0.0938399	0.129381	0.104119	-0.213538	0.0829309	0.527765	1.21565	0	0	-0.300711	-0.179391	0.300917	0.593727	0.825267	0	0
0.17	0.587923	1.43146	-2.23697	0.616487	1.42037	0.939525	-0.319406	-0.134748	-0.138316	0.366711	0.264135	0	0	0.310889	-0.0158052	-0.294518	0.264339	0.126478	0	0	-0.223941	-0.0944987	0.13362	0.0946179	-0.214221	0.0822812	0.534059	1.21988	0	0	-0.309349	-0.179018	0.300697	0.591405	0.818997	0	0
0.18	0.60479	1.43567	-2.2563	0.618319	1.4074	0.93821	-0.312862	-0.141151	-0.136426	0.39548	0.259635	0	0	0.319451	-0.0185645	-0.300538	0.297466	0.127871	0	0	-0.211577	-0.0948096	0.137559	0.0830404	-0.215062	0.0792129	0.5422	1.22407	0	0	-0.318269	-0.179243	0.301594	0.590433	0.811949	0	0
0.19	0.631509	1.44014	-2.28454	0.620417	1.39436	0.936908	-0.302597	-0.148841	-0.135164	0.429181	0.253139	0	0	0.32715	-0.01922	-0.304979	0.324695	0.123025	0	0	-0.197371	-0.0958458	0.139949	0.071557	-0.215385	0.0760034	0.547883	1.22902	0	0	-0.327739	-0.180166	0.303901	0.590946	0.802735	0	0
